<svg xmlns="http://www.w3.org/2000/svg" viewBox="0 0 400 311.46">
  <defs>
    <clipPath id="insideRing">
      <circle cx="200" cy="156" r="142"/>
    </clipPath>
    <linearGradient id="featherGrad" x1="0.3" y1="0" x2="0.7" y2="1">
      <stop offset="0%" stop-color="#4C2AE8"/>
      <stop offset="100%" stop-color="#7C3AED"/>
    </linearGradient>
  </defs>
  <g clip-path="url(#insideRing)">
    <path d="M201.090 14.557 C 162.689 15.523,124.339 34.465,98.995 64.985 C 81.911 85.557,70.075 111.947,66.664 137.072 C 66.466 138.528,66.182 140.561,66.032 141.589 C 64.586 151.523,65.000 167.953,67.019 180.685 C 74.321 226.748,103.526 267.123,144.192 287.373 C 152.394 291.458,156.388 292.934,155.285 291.472 C 151.419 286.352,147.517 278.326,146.842 274.101 C 146.622 272.728,145.992 272.145,142.835 270.400 C 115.063 255.040,90.836 221.942,83.003 188.658 C 79.392 173.317,78.415 154.461,80.526 140.892 C 86.537 102.272,106.315 70.483,137.072 50.003 C 172.734 26.257,214.939 22.494,253.115 39.656 C 257.548 41.649,257.685 41.909,254.947 43.129 C 252.951 44.018,242.788 49.393,238.318 51.923 C 237.718 52.262,236.246 53.079,235.047 53.737 C 229.286 56.898,209.848 69.337,209.034 70.382 C 208.949 70.492,207.505 71.603,205.826 72.850 C 202.740 75.143,196.280 80.443,194.534 82.114 C 193.649 82.961,191.291 88.591,191.665 88.965 C 191.742 89.042,192.248 87.807,192.788 86.220 C 193.907 82.932,194.291 82.487,200.156 77.693 C 214.287 66.139,232.028 55.050,254.115 43.965 C 263.130 39.440,274.394 34.624,275.035 35.020 C 276.196 35.738,272.554 63.838,269.479 77.882 C 269.122 79.509,268.556 82.103,268.221 83.645 C 267.885 85.187,266.724 89.975,265.640 94.285 L 263.669 102.121 258.755 107.272 C 256.052 110.106,252.770 113.379,251.462 114.545 C 250.153 115.712,248.308 117.369,247.361 118.228 C 245.729 119.708,237.635 126.259,235.125 128.132 C 233.742 129.164,233.613 129.689,234.813 129.403 C 236.013 129.118,236.875 128.564,235.748 128.802 C 234.469 129.073,234.495 129.048,239.952 124.726 C 248.192 118.199,261.626 105.577,263.651 102.459 C 263.918 102.049,265.050 98.069,266.169 93.614 C 271.198 73.579,274.241 55.883,275.384 40.031 C 275.794 34.340,275.827 34.691,274.844 34.294 C 274.373 34.104,273.146 33.456,272.118 32.853 C 251.385 20.710,225.149 13.951,201.090 14.557  M283.472 42.913 C 283.463 43.898,283.204 47.648,282.897 51.246 C 282.258 58.736,282.107 58.009,284.735 60.100 C 306.450 77.380,322.876 107.373,327.230 137.695 C 328.371 145.637,328.504 147.696,328.487 157.165 C 328.385 214.468,290.809 265.981,236.916 282.701 C 229.132 285.116,225.776 285.906,217.601 287.249 C 204.398 289.418,189.944 287.993,181.376 283.679 C 163.539 274.696,163.502 248.140,181.308 234.861 C 183.322 233.359,183.700 232.986,182.399 233.784 C 168.067 242.574,163.164 263.511,172.405 276.461 C 178.413 284.880,188.299 288.473,205.465 288.473 L 211.397 288.474 214.648 293.528 C 216.436 296.307,218.308 299.048,218.809 299.618 C 219.403 300.296,219.613 300.761,219.413 300.960 C 218.156 302.218,198.034 302.450,191.277 301.285 C 164.131 296.605,151.519 278.090,155.920 249.377 C 159.000 229.283,169.032 201.475,184.018 171.495 C 190.768 157.990,199.233 142.387,205.994 130.988 C 211.294 122.051,214.722 116.387,215.884 114.642 C 217.357 112.430,217.518 112.150,217.310 112.150 C 217.111 112.150,214.445 116.209,212.399 119.626 C 203.277 134.863,197.637 144.789,189.743 159.502 C 172.422 191.786,159.276 226.251,155.631 248.936 C 149.709 285.794,172.343 306.161,214.642 302.039 C 217.126 301.797,219.790 301.460,220.561 301.290 C 221.332 301.120,223.785 300.679,226.012 300.309 C 278.791 291.547,324.811 247.040,338.589 191.433 C 340.280 184.609,341.062 180.117,342.412 169.470 C 342.895 165.657,342.898 148.523,342.415 144.393 C 340.249 125.845,337.268 114.120,330.810 98.754 C 330.089 97.039,325.902 88.725,324.652 86.526 C 321.675 81.291,320.927 80.089,317.821 75.545 C 309.761 63.752,300.174 53.649,287.323 43.405 C 283.774 40.576,283.495 40.540,283.472 42.913" fill="#FFFFFF" fill-rule="evenodd"/>
    <path d="M271.651 36.028 C 245.125 46.753,209.607 68.087,195.256 81.914 C 192.190 84.867,185.996 109.098,185.983 118.185 C 185.981 119.667,185.171 119.267,184.897 117.648 C 184.805 117.108,184.320 114.354,183.818 111.526 C 182.793 105.747,181.668 97.820,181.546 95.507 C 181.425 93.233,181.106 93.390,177.156 97.666 C 163.427 112.529,153.255 130.417,150.852 143.924 C 150.140 147.924,150.159 159.055,150.886 164.315 C 151.192 166.528,151.287 168.152,151.120 168.319 C 150.570 168.869,146.707 162.043,144.904 157.336 C 143.679 154.137,143.584 154.208,142.096 159.416 C 136.883 177.674,136.500 190.818,140.897 200.623 C 141.964 203.003,142.834 205.868,142.569 206.132 C 142.297 206.405,137.278 201.473,136.407 200.078 C 135.199 198.143,135.115 198.665,135.284 207.087 C 135.615 223.624,138.376 234.706,145.606 248.520 C 147.176 251.520,147.379 251.484,147.812 248.131 C 149.733 233.259,158.234 207.344,168.301 185.670 C 168.739 184.727,170.101 181.783,171.328 179.128 C 175.343 170.435,184.514 152.804,189.234 144.704 C 190.133 143.162,191.472 140.849,192.211 139.564 C 193.897 136.633,200.682 125.494,202.553 122.586 C 206.290 116.778,212.112 107.995,213.704 105.763 C 227.090 86.997,231.766 81.311,241.510 71.950 C 247.184 66.498,247.834 66.238,244.931 70.583 C 243.778 72.309,241.783 75.367,240.498 77.380 C 239.213 79.392,232.974 88.845,226.633 98.385 C 216.930 112.986,209.152 125.400,202.883 136.293 C 189.742 159.128,177.660 183.360,170.343 201.558 C 148.332 256.294,150.209 284.051,176.791 296.892 C 186.019 301.350,202.569 303.343,216.174 301.634 C 219.741 301.186,220.007 300.983,218.809 299.618 C 218.308 299.048,216.436 296.307,214.648 293.528 L 211.397 288.474 205.465 288.473 C 180.347 288.472,167.710 279.229,167.773 260.903 C 167.822 246.514,176.028 235.154,189.720 230.519 C 193.501 229.239,194.061 228.952,196.885 226.847 C 199.464 224.924,204.050 220.499,204.050 219.933 C 204.050 219.670,203.402 219.641,201.636 219.828 C 198.503 220.159,187.965 220.033,187.293 219.657 C 186.690 219.319,186.326 219.495,192.212 217.280 C 208.923 210.991,220.156 200.968,230.908 182.750 C 232.038 180.837,231.940 180.761,229.199 181.425 C 227.026 181.951,220.556 183.348,216.044 184.266 C 213.947 184.692,212.301 184.912,205.403 185.688 C 201.508 186.127,200.285 185.764,202.684 184.883 C 219.495 178.703,227.739 174.400,238.389 166.244 L 240.858 164.353 244.386 157.176 C 251.509 142.688,259.502 122.769,259.502 119.506 C 259.502 118.850,259.736 118.781,256.035 120.528 C 244.932 125.768,234.520 129.967,233.996 129.417 C 233.888 129.304,234.270 128.842,234.843 128.391 C 240.430 123.993,246.237 119.276,247.509 118.104 C 248.366 117.313,250.142 115.712,251.454 114.545 C 252.767 113.379,256.052 110.106,258.755 107.272 L 263.669 102.121 265.640 94.285 C 266.724 89.975,267.885 85.187,268.221 83.645 C 268.556 82.103,269.122 79.509,269.478 77.882 C 272.161 65.610,274.776 46.975,275.138 37.544 C 275.254 34.540,275.292 34.556,271.651 36.028" fill="url(#featherGrad)" fill-rule="evenodd" stroke-width="3" paint-order="stroke" stroke-linejoin="round" stroke="url(#featherGrad)"/>
  </g>
</svg>